<?xml version="1.0" encoding="UTF-8" standalone="no"?>
<svg
   width="16"
   height="16"
   viewBox="0 0 4.2333333 4.2333333"
   version="1.1"
   id="svg5"
   xmlns="http://www.w3.org/2000/svg"
   xmlns:svg="http://www.w3.org/2000/svg">
  <g
     id="layer1">
    <path
       id="path550"
       style="fill:#808080;stroke-width:0.264583"
       d="M 1.0583333 0.26458333 A 0.26458332 0.26458332 0 0 0 0.79375 0.52916667 L 0.79375 1.5875 L 0.52916667 1.5875 A 0.26458332 0.26458332 0 0 0 0.26458333 1.8520833 L 0.26458333 3.7041667 A 0.26458332 0.26458332 0 0 0 0.52916667 3.96875 L 3.7041667 3.96875 A 0.26458332 0.26458332 0 0 0 3.96875 3.7041667 A 0.26458332 0.26458332 0 0 0 3.96875 3.7036499 A 0.26458332 0.26458332 0 0 0 3.96875 3.7031331 A 0.26458332 0.26458332 0 0 0 3.96875 3.7026164 A 0.26458332 0.26458332 0 0 0 3.96875 3.7020996 A 0.26458332 0.26458332 0 0 0 3.96875 3.7015828 A 0.26458332 0.26458332 0 0 0 3.96875 3.7010661 A 0.26458332 0.26458332 0 0 0 3.96875 3.7005493 A 0.26458332 0.26458332 0 0 0 3.96875 3.7000326 A 0.26458332 0.26458332 0 0 0 3.96875 3.6995158 A 0.26458332 0.26458332 0 0 0 3.96875 3.698999 A 0.26458332 0.26458332 0 0 0 3.96875 3.6984823 A 0.26458332 0.26458332 0 0 0 3.96875 3.6979655 A 0.26458332 0.26458332 0 0 0 3.96875 3.6974487 L 3.96875 1.8520833 A 0.26458332 0.26458332 0 0 0 3.7041667 1.5875 L 3.4395833 1.5875 L 3.4395833 0.52916667 A 0.26458332 0.26458332 0 0 0 3.175 0.26458333 L 1.0583333 0.26458333 z M 1.3229167 0.79375 L 2.9104167 0.79375 L 2.9104167 1.5875 L 1.3229167 1.5875 L 1.3229167 0.79375 z M 2.1166667 2.1166667 C 2.408917 2.1166667 2.6458333 2.3535829 2.6458333 2.6458333 C 2.6458683 2.8349212 2.5450049 3.0096593 2.38125 3.1042033 L 2.38125 3.4395833 L 1.8520833 3.4395833 L 1.8520833 3.1042033 C 1.6883284 3.0096593 1.5874649 2.8349212 1.5875 2.6458333 C 1.5874999 2.3535829 1.8244163 2.1166666 2.1166667 2.1166667 z " />
  </g>
</svg>
